<?xml version="1.0" encoding="UTF-8" standalone="no"?>
<svg
   xmlns:dc="http://purl.org/dc/elements/1.1/"
   xmlns:cc="http://creativecommons.org/ns#"
   xmlns:rdf="http://www.w3.org/1999/02/22-rdf-syntax-ns#"
   xmlns:svg="http://www.w3.org/2000/svg"
   xmlns="http://www.w3.org/2000/svg"
   id="svg3321"
   version="1.1"
   viewBox="0 0 81.374321 17.703623"
   height="17.703623mm"
   width="81.374321mm">
  <defs
     id="defs3315" />
  <metadata
     id="metadata3318">
    <rdf:RDF>
      <cc:Work
         rdf:about="">
        <dc:format>image/svg+xml</dc:format>
        <dc:type
           rdf:resource="http://purl.org/dc/dcmitype/StillImage" />
        <dc:title></dc:title>
      </cc:Work>
    </rdf:RDF>
  </metadata>
  <g
     transform="translate(-448.41403,-286.63629)"
     id="layer1">
    <circle
       r="0.9921875"
       cy="297.58014"
       cx="485.1062"
       id="path2354-0-6-7-3"
       style="opacity:1;fill:#97be11;fill-opacity:1;stroke:none;stroke-width:2.99999976;stroke-linecap:butt;stroke-linejoin:round;stroke-miterlimit:4;stroke-dasharray:none;stroke-dashoffset:0;stroke-opacity:1;paint-order:normal" />
    <circle
       r="0.9921875"
       cy="301.97409"
       cx="495.24069"
       id="path2354-9-3-1-2-5"
       style="opacity:1;fill:#97be11;fill-opacity:1;stroke:none;stroke-width:2.99999976;stroke-linecap:butt;stroke-linejoin:round;stroke-miterlimit:4;stroke-dasharray:none;stroke-dashoffset:0;stroke-opacity:1;paint-order:normal" />
    <circle
       r="0.9921875"
       cy="297.48563"
       cx="517.82471"
       id="path2354-1-4-6-5-9"
       style="opacity:1;fill:#97be11;fill-opacity:1;stroke:none;stroke-width:2.99999976;stroke-linecap:butt;stroke-linejoin:round;stroke-miterlimit:4;stroke-dasharray:none;stroke-dashoffset:0;stroke-opacity:1;paint-order:normal" />
    <path
       id="path2350-5-1-3-4"
       d="m 460.1933,303.08363 c -2.13121,-0.779 -2.57734,-1.73279 -2.57677,-5.50894 5.3e-4,-3.15677 0.39374,-4.24735 1.83094,-5.07747 1.2279,-0.70921 3.22436,-0.70032 4.18896,0.0187 1.43981,1.0732 1.7849,2.06241 1.7849,5.11646 0,2.30227 -0.0906,2.932 -0.52917,3.67651 -1.04063,1.7667 -2.85063,2.45035 -4.69886,1.77478 z m 2.78063,-2.22233 c 0.38711,-0.3349 0.46302,-0.86424 0.46302,-3.22897 0,-2.46284 -0.0663,-2.88841 -0.51309,-3.29274 -0.75047,-0.67917 -2.38802,-0.61294 -2.98201,0.1206 -0.63547,0.78477 -0.69016,5.39112 -0.0744,6.27018 0.62362,0.89034 2.15416,0.95485 3.10653,0.13093 z m -13.5599,-3.22897 v -5.55625 l 2.05053,0.006 c 3.67519,0.0104 5.2167,1.19158 5.2167,3.99723 0,2.47028 -1.54634,3.9332 -4.15837,3.93405 l -1.25677,3.9e-4 v 1.5875 1.70562 h -0.92604 -0.92605 z m 4.59453,-0.0192 c 0.53303,-0.41927 0.69714,-0.78333 0.69714,-1.54648 0,-1.27904 -0.66493,-1.89455 -2.23822,-2.07188 l -1.20136,-0.13541 v 2.15107 2.15108 h 1.02265 c 0.63396,0 1.28762,-0.20843 1.71979,-0.54837 z m 15.38152,5.38159 c -0.98701,-0.24713 -1.92265,-1.11837 -2.35116,-2.18932 -0.32411,-0.81004 -0.42697,-1.98999 -0.42697,-4.8982 v -3.83111 h 0.92604 0.92604 v 3.72156 c 0,3.5861 0.17806,4.59006 0.89951,5.07179 0.16012,0.10691 1.09479,0.19621 2.07706,0.19844 l 1.78593,0.004 v 1.05833 1.17645 l -1.65364,-0.0307 c -0.90951,-0.0169 -1.89177,-0.20842 -2.18281,-0.28129 z m 6.53949,-0.33216 c -1.81243,-0.82262 -2.16093,-1.89699 -2.16806,-6.68386 l -0.006,-3.90261 h 0.92604 0.92604 v 3.55465 c 0,3.45335 0.22918,4.82174 0.87645,5.23331 0.1728,0.10988 1.11784,0.2016 2.10012,0.20383 l 1.78592,0.004 v 1.05833 l -0.0236,1.17645 -1.65363,-0.006 c -1.06198,-0.004 -2.03556,-0.30798 -2.76345,-0.63835 z m 7.22897,0.12947 c -1.93174,-0.68804 -2.65268,-2.38931 -2.46679,-5.82114 0.19694,-3.63623 1.13875,-4.64909 4.50407,-4.8439 l 2.05362,-0.11889 v 0.96004 0.96004 h -1.30568 c -1.40346,0 -2.66209,0.36964 -2.98435,0.87645 -0.10988,0.17279 -0.2016,1.45658 -0.20382,2.85285 -0.005,3.18283 0.18002,3.41445 2.72876,3.41445 h 1.76509 v 1.05833 l 0.0236,1.17645 -1.52135,-0.0116 c -0.83674,-0.006 -2.01666,-0.29773 -2.59317,-0.50307 z m 5.15023,-3.90292 c 0.001,-4.7161 0.19788,-5.44392 1.74626,-6.45846 1.02827,-0.67375 3.31187,-0.63123 4.26527,0.0794 1.38266,1.03061 1.74564,2.03025 1.87471,5.16281 l 0.11824,2.86988 h -1.09232 -1.09231 v -2.86941 c 0,-2.5566 -0.0591,-2.92292 -0.54233,-3.36021 -0.78551,-0.71088 -2.30882,-0.64821 -2.93135,0.12059 -0.43578,0.53817 -0.49507,1.09907 -0.49507,4.68313 l 0.0236,4.18985 h -0.92605 -0.92604 l -0.0226,-4.4176 z m 16.90873,4.4252 c 0,0 1.09069,-2.52224 2.39489,-4.91087 l 2.37127,-4.34297 -1.18065,-0.0806 c -1.15374,-0.0788 -1.18064,-0.10142 -1.18064,-0.99219 v -0.91154 h 2.79754 2.79754 l -0.78042,1.38906 c -1.86688,3.32285 -4.02091,7.31701 -4.02091,7.45586 0,0.083 1.01203,0.15091 2.24895,0.15091 h 2.24896 v 1.05833 l -0.0236,1.18401 h -3.83646 -3.83645 z m 10.36117,-0.47103 c -1.65791,-0.84539 -1.98534,-1.71536 -2.08016,-4.89464 -0.1327,-4.44967 0.7466,-5.60405 4.43113,-5.81734 l 2.12814,-0.1232 v 0.93018 0.93018 l -1.85123,0.10461 c -2.51165,0.14192 -2.75323,0.41417 -2.87078,3.23527 -0.069,1.65586 0.0148,2.40939 0.33753,3.03337 0.42312,0.81822 0.45789,0.83022 2.40689,0.83022 h 1.97759 v 1.05833 1.17645 l -1.78594,-5.3e-4 c -1.17727,-2.7e-4 -2.09512,-0.15807 -2.69317,-0.46303 z m 5.53745,-5.2425 v -5.58781 l 2.51033,0.1098 c 1.98659,0.0869 2.6628,0.2216 3.24114,0.64568 1.12501,0.82494 1.70407,2.14183 1.5795,3.59208 -0.0931,1.0842 -0.34941,1.65247 -1.33927,2.9697 -0.13984,0.18609 0.13731,0.90329 0.72692,1.88112 0.52411,0.8692 0.95324,1.78779 0.95361,1.89693 2.6e-4,0.10914 -0.40742,0.19843 -0.9062,0.19843 -0.82488,0 -0.99409,-0.26167 -1.87124,-1.70562 -0.91553,-1.50712 -1.01697,-1.5875 -2.00353,-1.5875 h -1.03918 v 1.5875 1.70562 h -0.92604 -0.92604 z m 4.33529,0.26183 c 0.36081,-0.1644 0.80435,-0.65699 0.98563,-1.09465 0.5919,-1.42898 -0.69442,-2.8272 -2.60894,-2.83588 l -0.8599,-0.004 v 2.11666 2.11667 h 0.91359 c 0.50248,0 1.2088,-0.13451 1.56962,-0.2989 z"
       style="fill:#ffa820;fill-opacity:1;stroke-width:1" />
    <path
       id="path2350-1-2-6-3-1"
       d="m 499.10425,289.9756 c -1.61539,2.01931 -1.58646,5.17581 1.34604,6.72341 0.0696,1.93929 -0.97655,4.39375 -0.34445,6.63208 h 0.92604 0.92552 c -0.94736,-2.94141 0.005,-5.21079 0.11576,-6.41509 1.63296,-0.17174 2.60886,-0.82247 3.11572,-1.69533 0.20667,-0.37094 0.57401,-1.14534 0.57401,-1.14534 0,0 -0.90279,-0.0157 -1.36737,-0.0103 -0.46739,0.86748 -1.37314,1.40847 -2.35852,1.40869 -1.47992,-1.9e-4 -2.67951,-1.20002 -2.67941,-2.67994 7.9e-4,-0.11409 0.009,-0.22801 0.0243,-0.34107 -0.005,-0.003 -0.009,-0.006 -0.014,-0.009 0.005,-0.0115 0.0154,-0.027 0.0212,-0.0387 0.1074,-0.73023 0.51122,-1.38384 1.11622,-1.80663 l -0.45835,-0.54776 z"
       style="fill:#ffa820;fill-opacity:1;stroke-width:1" />
    <ellipse
       transform="rotate(114.42093)"
       ry="1.215847"
       rx="0.77535224"
       cy="-581.9726"
       cx="58.944321"
       id="path2354-95-0-4-9-2-8-3-1-8"
       style="opacity:1;fill:#97be11;fill-opacity:1;stroke:#fbfceb;stroke-width:0.2;stroke-linecap:butt;stroke-linejoin:round;stroke-miterlimit:4;stroke-dasharray:none;stroke-dashoffset:0;stroke-opacity:1;paint-order:normal" />
    <ellipse
       transform="rotate(25.344472)"
       ry="1.215847"
       rx="0.77535224"
       cy="45.87365"
       cx="578.97803"
       id="path2354-95-0-4-9-2-8-2-9-0-0"
       style="opacity:1;fill:#97be11;fill-opacity:1;stroke:#fbfceb;stroke-width:0.2;stroke-linecap:butt;stroke-linejoin:round;stroke-miterlimit:4;stroke-dasharray:none;stroke-dashoffset:0;stroke-opacity:1;paint-order:normal" />
    <ellipse
       transform="rotate(57.213862)"
       ry="1.215847"
       rx="0.77535224"
       cy="-267.33261"
       cx="517.8642"
       id="path2354-95-0-4-9-2-8-4-0-0-1"
       style="opacity:1;fill:#97be11;fill-opacity:1;stroke:#fbfceb;stroke-width:0.2;stroke-linecap:butt;stroke-linejoin:round;stroke-miterlimit:4;stroke-dasharray:none;stroke-dashoffset:0;stroke-opacity:1;paint-order:normal" />
    <ellipse
       transform="rotate(87.412145)"
       ry="1.215847"
       rx="0.77535224"
       cy="-492.10745"
       cx="314.98846"
       id="path2354-95-0-4-9-2-8-0-8-5-7"
       style="opacity:1;fill:#97be11;fill-opacity:1;stroke:#fbfceb;stroke-width:0.2;stroke-linecap:butt;stroke-linejoin:round;stroke-miterlimit:4;stroke-dasharray:none;stroke-dashoffset:0;stroke-opacity:1;paint-order:normal" />
    <ellipse
       transform="rotate(-2.8950038)"
       ry="1.215847"
       rx="0.77535224"
       cy="313.91931"
       cx="486.4278"
       id="path2354-95-0-4-9-2-8-2-9-8-0-9"
       style="opacity:1;fill:#97be11;fill-opacity:1;stroke:#fbfceb;stroke-width:0.2;stroke-linecap:butt;stroke-linejoin:round;stroke-miterlimit:4;stroke-dasharray:none;stroke-dashoffset:0;stroke-opacity:1;paint-order:normal" />
    <ellipse
       transform="rotate(-38.290761)"
       ry="1.215847"
       rx="0.77535224"
       cy="537.04724"
       cx="212.85274"
       id="path2354-95-0-4-9-2-8-2-9-8-7-3-1"
       style="opacity:1;fill:#97be11;fill-opacity:1;stroke:#fbfceb;stroke-width:0.2;stroke-linecap:butt;stroke-linejoin:round;stroke-miterlimit:4;stroke-dasharray:none;stroke-dashoffset:0;stroke-opacity:1;paint-order:normal" />
  </g>
</svg>
